<svg width="53" height="53" viewBox="0 0 53 53" fill="none" xmlns="http://www.w3.org/2000/svg">
<path d="M5 53C2.23858 53 2.66948e-08 50.7614 5.96244e-08 48L5.72394e-07 5C6.05324e-07 2.23858 2.23858 2.66948e-08 5 5.96244e-08L33.9717 4.05108e-07C35.0832 4.18363e-07 36.1631 0.370381 37.0406 1.05262L51.0689 11.959C52.2873 12.9062 53 14.3631 53 15.9064L53 48C53 50.7614 50.7614 53 48 53L5 53Z" fill="#22F5C3"/>
<path d="M34.7259 17.1172L29.1051 14.6183C27.2517 13.7939 25.0372 13.7939 23.1838 14.6183L17.5598 17.1172C15.3645 18.0918 14 20.0698 14 22.2747V30.0078C14 32.2127 15.3645 34.1907 17.5598 35.1653L23.1838 37.6642C24.1041 38.0732 25.1107 38.2777 26.1173 38.2809C26.1269 38.2809 26.1333 38.2873 26.1428 38.2873C26.1524 38.2873 26.1588 38.2841 26.1684 38.2809C27.1782 38.2777 28.1848 38.0732 29.1019 37.6642L34.7259 35.1653C36.9212 34.1907 38.2857 32.2127 38.2857 30.0078V22.2747C38.2857 20.0698 36.9212 18.0918 34.7259 17.1172ZM23.7015 15.7879C24.4652 15.4492 25.3056 15.2766 26.1428 15.2766C26.9801 15.2766 27.8205 15.446 28.5842 15.7879L34.2051 18.2835C34.7771 18.5392 35.2692 18.8811 35.6846 19.2805L31.8915 20.9646L21.9663 16.558L23.7015 15.7879ZM18.0806 18.2835L20.391 17.2578L30.3194 21.6676L27.8109 22.7828C26.8075 23.2302 25.4814 23.2302 24.478 22.7828L16.6011 19.2837C17.0133 18.8843 17.5054 18.5392 18.0806 18.2867V18.2835ZM18.0806 33.9958C16.3519 33.2288 15.2782 31.6982 15.2782 30.0078V22.2747C15.2782 21.5813 15.4667 20.9198 15.7959 20.3255L23.9571 23.9523C24.4333 24.1632 24.9637 24.2751 25.5038 24.339V36.9388C24.8838 36.8749 24.2703 36.7471 23.7015 36.4946L18.0774 33.9958H18.0806ZM37.0075 30.0078C37.0075 31.7014 35.9338 33.2288 34.2051 33.9958L28.581 36.4946C28.0122 36.7471 27.3987 36.8749 26.7788 36.9388V24.339C27.3188 24.2783 27.8492 24.1632 28.3254 23.9523L36.4866 20.3255C36.8158 20.923 37.0043 21.5845 37.0043 22.2747V30.0078H37.0075Z" fill="black"/>
</svg>
