<svg width="53" height="53" viewBox="0 0 53 53" fill="none" xmlns="http://www.w3.org/2000/svg">
<path d="M5 53C2.23858 53 2.66948e-08 50.7614 5.96244e-08 48L5.72394e-07 5C6.05324e-07 2.23857 2.23858 2.66948e-08 5 5.96244e-08L33.9717 4.05108e-07C35.0832 4.18363e-07 36.1631 0.370381 37.0406 1.05262L51.0689 11.959C52.2873 12.9062 53 14.3631 53 15.9064L53 48C53 50.7614 50.7614 53 48 53L5 53Z" fill="#22F5C3"/>
<path d="M38.1689 23.631C37.8909 22.765 37.1528 22.1451 36.2421 22.0141L30.733 21.2248L28.2725 16.3101C27.8667 15.5017 27.0518 15 26.1411 15C25.2304 15 24.4124 15.5017 24.0097 16.3101L21.5492 21.2248L16.0402 22.0141C15.1295 22.1451 14.3913 22.765 14.1133 23.631C13.8385 24.4874 14.0718 25.4077 14.7237 26.034L18.7052 29.8558L17.7658 35.2498C17.6124 36.1318 17.9671 37.0073 18.6924 37.541C19.4306 38.0842 20.3988 38.1577 21.2137 37.7359L26.1411 35.1827L31.0686 37.7359C31.4201 37.918 31.8003 38.0075 32.1742 38.0075C32.6727 38.0075 33.168 37.8509 33.5898 37.541C34.3152 37.0073 34.6699 36.1318 34.5165 35.2498L33.577 29.8558L37.5586 26.034C38.2105 25.4077 38.4438 24.4874 38.1689 23.631ZM36.6735 25.1137L32.449 29.172C32.2956 29.319 32.2253 29.5331 32.2605 29.744L33.2575 35.4735C33.3278 35.8793 33.168 36.266 32.8325 36.5152C32.481 36.7709 32.0432 36.806 31.6533 36.6047L26.4319 33.8981C26.3392 33.8502 26.2402 33.8278 26.1379 33.8278C26.0357 33.8278 25.9366 33.8502 25.8439 33.8981L20.6225 36.6047C20.2359 36.806 19.7949 36.7709 19.4434 36.5152C19.1079 36.2692 18.9481 35.8793 19.0184 35.4735L20.0154 29.744C20.0505 29.5331 19.9802 29.319 19.8268 29.172L15.6056 25.1137C15.3052 24.8229 15.1998 24.4171 15.3276 24.0241C15.4586 23.6214 15.7909 23.3434 16.2191 23.2827L22.0573 22.4455C22.265 22.4167 22.4439 22.2857 22.5398 22.1004L25.1505 16.8853C25.5276 16.1312 26.7515 16.1312 27.1285 16.8853L29.7392 22.1004C29.8319 22.2889 30.0141 22.4167 30.2218 22.4455L36.0599 23.2827C36.4881 23.3434 36.8204 23.6214 36.9515 24.0241C37.0793 24.4171 36.9738 24.8261 36.6735 25.1137Z" fill="black"/>
</svg>
