<svg width="53" height="53" viewBox="0 0 53 53" fill="none" xmlns="http://www.w3.org/2000/svg">
<path d="M5 53C2.23858 53 2.66948e-08 50.7614 5.96244e-08 48L5.72394e-07 5C6.05324e-07 2.23857 2.23858 -1.11525e-06 5 -1.08232e-06L33.9717 -7.36841e-07C35.0832 -7.23586e-07 36.1631 0.37038 37.0406 1.05262L51.0689 11.959C52.2873 12.9062 53 14.3631 53 15.9064L53 48C53 50.7614 50.7614 53 48 53L5 53Z" fill="#22F5C3"/>
<path d="M32.5338 14H19.7519C16.5788 14 14 16.5788 14 19.7519V32.5338C14 35.7069 16.5788 38.2857 19.7519 38.2857H32.5338C35.7069 38.2857 38.2857 35.7069 38.2857 32.5338V19.7519C38.2857 16.5788 35.7069 14 32.5338 14ZM33.1729 26.7819H37.0075V30.6165H33.1729V26.7819ZM33.1729 21.6692H37.0075V25.5038H33.1729V21.6692ZM37.0075 19.7519V20.391H33.1729V15.3421C35.3363 15.6553 37.0075 17.5023 37.0075 19.7519ZM31.8947 15.2782V25.5038H20.391V15.2782H31.8947ZM19.1128 30.6165H15.2782V26.7819H19.1128V30.6165ZM15.2782 25.5038V21.6692H19.1128V25.5038H15.2782ZM19.1128 15.3421V20.391H15.2782V19.7519C15.2782 17.5054 16.9494 15.6553 19.1128 15.3421ZM15.2782 32.5338V31.8947H19.1128V36.9436C16.9494 36.6304 15.2782 34.7834 15.2782 32.5338ZM20.391 37.0075V26.7819H31.8947V37.0075H20.391ZM33.1729 36.9436V31.8947H37.0075V32.5338C37.0075 34.7803 35.3363 36.6304 33.1729 36.9436Z" fill="black"/>
</svg>
