<svg width="53" height="53" viewBox="0 0 53 53" fill="none" xmlns="http://www.w3.org/2000/svg">
<path d="M5 53C2.23858 53 2.66948e-08 50.7614 5.96244e-08 48L5.72394e-07 5C6.05324e-07 2.23857 2.23858 2.66948e-08 5 5.96244e-08L33.9717 4.05108e-07C35.0832 4.18363e-07 36.1631 0.370381 37.0406 1.05262L51.0689 11.959C52.2873 12.9062 53 14.3631 53 15.9064L53 48C53 50.7614 50.7614 53 48 53L5 53Z" fill="#22F5C3"/>
<path d="M26.1428 27.5038C29.316 27.5038 31.8947 24.925 31.8947 21.7519C31.8947 18.5788 29.316 16 26.1428 16C22.9697 16 20.391 18.5788 20.391 21.7519C20.391 24.925 22.9697 27.5038 26.1428 27.5038ZM26.1428 17.2782C28.6098 17.2782 30.6165 19.285 30.6165 21.7519C30.6165 24.2188 28.6098 26.2256 26.1428 26.2256C23.6759 26.2256 21.6692 24.2188 21.6692 21.7519C21.6692 19.285 23.6759 17.2782 26.1428 17.2782ZM34.4511 33.7669V34.8725C34.4511 35.8504 34.0932 36.7898 33.4445 37.5152C33.3167 37.6558 33.141 37.7293 32.9684 37.7293C32.815 37.7293 32.6648 37.675 32.5434 37.5663C32.2814 37.3299 32.259 36.9272 32.4923 36.6652C32.9333 36.1731 33.1729 35.5404 33.1729 34.8757V33.7701C33.1729 32.0286 32.0162 30.5203 30.3577 30.1017C30.035 30.0186 29.6866 30.0633 29.4054 30.2263C27.3795 31.3511 24.8966 31.3479 22.8835 30.2263C22.5959 30.0633 22.2507 30.0154 21.9248 30.0985C20.2663 30.5139 19.1096 32.0222 19.1096 33.7669V34.8725C19.1096 35.5372 19.3524 36.1699 19.7902 36.662C20.0235 36.924 20.0011 37.3299 19.7391 37.5631C19.4771 37.7964 19.0744 37.7772 18.838 37.512C18.1893 36.7866 17.8314 35.8472 17.8314 34.8693V33.7637C17.8314 31.4342 19.3876 29.4178 21.6116 28.8554C22.2539 28.6925 22.941 28.7851 23.5098 29.1079C25.1299 30.009 27.143 30.0122 28.7759 29.1079C29.3351 28.7883 30.0286 28.6989 30.6677 28.8586C32.8917 29.4178 34.4479 31.4374 34.4479 33.7669H34.4511ZM33.2081 16.6455C33.3263 16.3132 33.6906 16.1438 34.0229 16.2556C35.806 16.8851 37.0043 18.582 37.0043 20.4737C37.0043 21.7455 36.4611 22.9598 35.512 23.8066C35.3906 23.9152 35.2372 23.9695 35.087 23.9695C34.9113 23.9695 34.7355 23.8992 34.6109 23.7554C34.3776 23.4934 34.4 23.0876 34.662 22.8543C35.3395 22.2504 35.7261 21.3812 35.7261 20.4737C35.7261 19.122 34.8697 17.9109 33.5947 17.4603C33.2624 17.3421 33.0866 16.9778 33.2049 16.6455H33.2081ZM38.2857 30.4883V31.4118C38.2857 31.7665 38.0013 32.0509 37.6466 32.0509C37.2919 32.0509 37.0075 31.7665 37.0075 31.4118V30.4883C37.0075 29.0855 36.0776 27.8712 34.7419 27.5357C34.4 27.4494 34.1923 27.1011 34.2786 26.7592C34.3648 26.4173 34.7068 26.2064 35.0551 26.2959C36.9564 26.7752 38.2857 28.4975 38.2857 30.4883ZM16.7705 24.3754C15.8246 23.5286 15.2782 22.3111 15.2782 21.0425C15.2782 19.1507 16.4765 17.4539 18.2596 16.8244C18.5919 16.7094 18.9562 16.882 19.0744 17.2143C19.1927 17.5466 19.0169 17.9109 18.6846 18.0291C17.4096 18.4797 16.5532 19.6908 16.5532 21.0425C16.5532 21.95 16.9398 22.8192 17.6173 23.4231C17.8793 23.6596 17.9017 24.0622 17.6684 24.3242C17.5406 24.4648 17.3648 24.5383 17.1923 24.5383C17.0421 24.5383 16.8887 24.484 16.7673 24.3754H16.7705ZM17.5438 28.1013C16.2113 28.4368 15.2782 29.6511 15.2782 31.0539V31.9774C15.2782 32.3321 14.9938 32.6165 14.6391 32.6165C14.2844 32.6165 14 32.3321 14 31.9774V31.0539C14 29.0631 15.3293 27.3408 17.2306 26.8615C17.5757 26.7752 17.9209 26.9829 18.0071 27.3248C18.0934 27.6667 17.8857 28.015 17.5438 28.1013Z" fill="black"/>
</svg>
