<svg width="53" height="53" viewBox="0 0 53 53" fill="none" xmlns="http://www.w3.org/2000/svg">
<path d="M5 53C2.23858 53 2.66948e-08 50.7614 5.96244e-08 48L5.72394e-07 5C6.05324e-07 2.23858 2.23858 2.66948e-08 5 5.96244e-08L33.9717 4.05108e-07C35.0832 4.18363e-07 36.1631 0.370381 37.0406 1.05262L51.0689 11.959C52.2873 12.9062 53 14.3631 53 15.9064L53 48C53 50.7614 50.7614 53 48 53L5 53Z" fill="#22F5C3"/>
<path d="M26.5865 26.7819C30.1111 26.7819 32.9774 23.9156 32.9774 20.391C32.9774 16.8664 30.1111 14 26.5865 14C23.0618 14 20.1955 16.8664 20.1955 20.391C20.1955 23.9156 23.0618 26.7819 26.5865 26.7819ZM26.5865 15.2782C29.4049 15.2782 31.6992 17.5726 31.6992 20.391C31.6992 23.2094 29.4049 25.5038 26.5865 25.5038C23.768 25.5038 21.4737 23.2094 21.4737 20.391C21.4737 17.5726 23.768 15.2782 26.5865 15.2782ZM36.1729 33.7705V35.0615C36.1729 36.1767 35.7639 37.2472 35.0257 38.0716C34.8979 38.2122 34.7254 38.2857 34.5496 38.2857C34.3962 38.2857 34.246 38.2314 34.1246 38.1227C33.8626 37.8863 33.8402 37.4836 34.0735 37.2216C34.6039 36.6304 34.8947 35.8635 34.8947 35.0646V33.7737C34.8947 31.6934 33.5111 29.8912 31.5299 29.3927C31.1272 29.2904 30.6927 29.3479 30.3412 29.5492C28.0116 30.8434 25.1581 30.8402 22.8382 29.5492C22.4803 29.3447 22.0489 29.2904 21.643 29.3895C19.6618 29.888 18.2782 31.6902 18.2782 33.7705V35.0615C18.2782 35.8635 18.569 36.6272 19.0994 37.2184C19.3359 37.4804 19.3135 37.8863 19.0483 38.1195C18.7863 38.3528 18.3836 38.3336 18.1472 38.0684C17.409 37.244 17 36.1735 17 35.0583V33.7673C17 31.099 18.7799 28.7887 21.3299 28.1464C22.0489 27.9643 22.8286 28.0665 23.4645 28.4308C25.3913 29.5045 27.7752 29.5077 29.7148 28.4308C30.3444 28.0697 31.1241 27.9675 31.843 28.1496C34.393 28.7919 36.1729 31.1022 36.1729 33.7705Z" fill="black"/>
</svg>
