<svg width="324" height="87" viewBox="0 0 324 87" fill="none" xmlns="http://www.w3.org/2000/svg">
<g filter="url(#filter0_b_4249_8)">
<path d="M0.500001 76C0.5 81.799 5.20101 86.5 11 86.5L313 86.5C318.799 86.5 323.5 81.799 323.5 76L323.5 28.4849C323.5 24.8657 321.636 21.5017 318.568 19.5826L290.612 2.09776C288.942 1.05366 287.013 0.5 285.044 0.5L11 0.499978C5.20102 0.499978 0.500008 5.20099 0.500007 11L0.500001 76Z" stroke="url(#paint0_linear_4249_8)"/>
</g>
<path d="M51.5767 47.522V46.522H50.5767V47.522H51.5767ZM51.5767 62V63H52.5767V62H51.5767ZM43.5967 62H42.5967V63H43.5967V62ZM43.5967 25.121V24.121H42.5967V25.121H43.5967ZM56.7637 30.935L55.9955 31.5752L56.0245 31.61L56.0566 31.6421L56.7637 30.935ZM51.5767 30.593V29.593H50.5767V30.593H51.5767ZM51.5767 42.05H50.5767V43.05H51.5767V42.05ZM56.7637 41.708L56.0566 41.0009L56.0245 41.033L55.9955 41.0678L56.7637 41.708ZM58.0177 26.121C60.203 26.121 61.6626 26.6996 62.5899 27.6867C63.5282 28.6855 64.0857 30.2761 64.0857 32.645H66.0857C66.0857 29.9979 65.4653 27.8265 64.0476 26.3173C62.6188 24.7964 60.5444 24.121 58.0177 24.121V26.121ZM64.0857 32.645V39.998H66.0857V32.645H64.0857ZM64.0857 39.998C64.0857 42.3669 63.5282 43.9575 62.5899 44.9563C61.6626 45.9434 60.203 46.522 58.0177 46.522V48.522C60.5444 48.522 62.6188 47.8466 64.0476 46.3257C65.4653 44.8165 66.0857 42.6451 66.0857 39.998H64.0857ZM58.0177 46.522H51.5767V48.522H58.0177V46.522ZM50.5767 47.522V62H52.5767V47.522H50.5767ZM51.5767 61H43.5967V63H51.5767V61ZM44.5967 62V25.121H42.5967V62H44.5967ZM43.5967 26.121H58.0177V24.121H43.5967V26.121ZM58.1057 40.91V31.733H56.1057V40.91H58.1057ZM58.1057 31.733C58.1057 31.1464 57.8737 30.6308 57.4708 30.2279L56.0566 31.6421C56.0909 31.6764 56.0996 31.696 56.1011 31.6994C56.102 31.7017 56.1057 31.7095 56.1057 31.733H58.1057ZM57.5319 30.2948C57.1467 29.8325 56.6152 29.593 56.0227 29.593V31.593C56.0361 31.593 56.0403 31.5942 56.0374 31.5936C56.0342 31.593 56.0267 31.591 56.0169 31.5865C56.0071 31.5819 55.9992 31.5768 55.9942 31.5729C55.9894 31.5691 55.9902 31.5688 55.9955 31.5752L57.5319 30.2948ZM56.0227 29.593H51.5767V31.593H56.0227V29.593ZM50.5767 30.593V42.05H52.5767V30.593H50.5767ZM51.5767 43.05H56.0227V41.05H51.5767V43.05ZM56.0227 43.05C56.6152 43.05 57.1467 42.8105 57.5319 42.3482L55.9955 41.0678C55.9902 41.0742 55.9894 41.0739 55.9942 41.0701C55.9992 41.0662 56.0071 41.0611 56.0169 41.0565C56.0267 41.052 56.0342 41.05 56.0374 41.0494C56.0403 41.0488 56.0361 41.05 56.0227 41.05V43.05ZM57.4708 42.4151C57.8737 42.0122 58.1057 41.4966 58.1057 40.91H56.1057C56.1057 40.9335 56.102 40.9413 56.1011 40.9436C56.0996 40.947 56.0909 40.9666 56.0566 41.0009L57.4708 42.4151ZM90.8092 62V63H91.8092V62H90.8092ZM82.8292 62H81.8292V63H82.8292V62ZM82.8292 49.631H83.8292V48.631H82.8292V49.631ZM77.0722 49.631V48.631H76.0722V49.631H77.0722ZM77.0722 62V63H78.0722V62H77.0722ZM69.0922 62H68.0922V63H69.0922V62ZM77.0722 43.475H76.0722V44.475H77.0722V43.475ZM82.8292 43.475V44.475H83.8292V43.475H82.8292ZM82.4872 30.308L81.719 30.9482L81.748 30.983L81.7801 31.0151L82.4872 30.308ZM77.3572 30.308L76.6501 29.6009L76.618 29.633L76.589 29.6678L77.3572 30.308ZM83.7412 25.551C85.9265 25.551 87.3861 26.1296 88.3133 27.1167C89.2516 28.1155 89.8092 29.7061 89.8092 32.075H91.8092C91.8092 29.4279 91.1887 27.2565 89.771 25.7473C88.3423 24.2264 86.2679 23.551 83.7412 23.551V25.551ZM89.8092 32.075V62H91.8092V32.075H89.8092ZM90.8092 61H82.8292V63H90.8092V61ZM83.8292 62V49.631H81.8292V62H83.8292ZM82.8292 48.631H77.0722V50.631H82.8292V48.631ZM76.0722 49.631V62H78.0722V49.631H76.0722ZM77.0722 61H69.0922V63H77.0722V61ZM70.0922 62V32.075H68.0922V62H70.0922ZM70.0922 32.075C70.0922 29.7061 70.6497 28.1155 71.588 27.1167C72.5153 26.1296 73.9749 25.551 76.1602 25.551V23.551C73.6335 23.551 71.5591 24.2264 70.1303 25.7473C68.7126 27.2565 68.0922 29.4279 68.0922 32.075H70.0922ZM76.1602 25.551H83.7412V23.551H76.1602V25.551ZM77.0722 44.475H82.8292V42.475H77.0722V44.475ZM83.8292 43.475V31.106H81.8292V43.475H83.8292ZM83.8292 31.106C83.8292 30.5194 83.5972 30.0038 83.1943 29.6009L81.7801 31.0151C81.8144 31.0494 81.8231 31.069 81.8245 31.0724C81.8255 31.0747 81.8292 31.0825 81.8292 31.106H83.8292ZM83.2554 29.6678C82.8701 29.2055 82.3386 28.966 81.7462 28.966V30.966C81.7595 30.966 81.7638 30.9672 81.7609 30.9666C81.7577 30.966 81.7502 30.964 81.7404 30.9595C81.7306 30.9549 81.7227 30.9498 81.7177 30.9459C81.7129 30.9421 81.7136 30.9418 81.719 30.9482L83.2554 29.6678ZM81.7462 28.966H78.1552V30.966H81.7462V28.966ZM78.1552 28.966C77.5686 28.966 77.053 29.198 76.6501 29.6009L78.0643 31.0151C78.0986 30.9808 78.1182 30.9721 78.1216 30.9706C78.1239 30.9697 78.1317 30.966 78.1552 30.966V28.966ZM76.589 29.6678C76.2453 30.0802 76.0722 30.5743 76.0722 31.106H78.0722C78.0722 31.0297 78.0891 30.9918 78.1254 30.9482L76.589 29.6678ZM76.0722 31.106V43.475H78.0722V31.106H76.0722ZM104.737 46.895V45.895H103.737V46.895H104.737ZM104.737 62V63H105.737V62H104.737ZM96.7572 62H95.7572V63H96.7572V62ZM96.7572 25.121V24.121H95.7572V25.121H96.7572ZM114.769 42.734L114.409 41.8011L111.908 42.7666L114.431 43.6749L114.769 42.734ZM117.619 62V63H118.619V62H117.619ZM109.639 62H108.639V63H109.639V62ZM104.737 30.536V29.536H103.737V30.536H104.737ZM104.737 41.309H103.737V42.309H104.737V41.309ZM109.696 40.967L108.989 40.2599L108.957 40.292L108.928 40.3268L109.696 40.967ZM109.696 30.878L108.928 31.5182L108.957 31.553L108.989 31.5851L109.696 30.878ZM103.737 46.895V62H105.737V46.895H103.737ZM104.737 61H96.7572V63H104.737V61ZM97.7572 62V25.121H95.7572V62H97.7572ZM96.7572 26.121H110.95V24.121H96.7572V26.121ZM110.95 26.121C113.136 26.121 114.595 26.6996 115.522 27.6867C116.461 28.6855 117.018 30.2761 117.018 32.645H119.018C119.018 29.9979 118.398 27.8265 116.98 26.3173C115.551 24.7964 113.477 24.121 110.95 24.121V26.121ZM117.018 32.645V36.92H119.018V32.645H117.018ZM117.018 36.92C117.018 38.3295 116.766 39.3908 116.333 40.1657C115.911 40.9211 115.285 41.4629 114.409 41.8011L115.129 43.6669C116.419 43.1691 117.418 42.3239 118.079 41.1413C118.729 39.9782 119.018 38.5505 119.018 36.92H117.018ZM114.431 43.6749C115.19 43.9484 115.709 44.3728 116.053 44.9361C116.406 45.5143 116.619 46.3163 116.619 47.408H118.619C118.619 46.0677 118.358 44.8747 117.761 43.8949C117.154 42.9002 116.248 42.2036 115.108 41.7931L114.431 43.6749ZM116.619 47.408V62H118.619V47.408H116.619ZM117.619 61H109.639V63H117.619V61ZM110.639 62V48.035H108.639V62H110.639ZM110.639 48.035C110.639 47.5133 110.516 46.9362 110.093 46.4912C109.662 46.0366 109.085 45.895 108.556 45.895V47.895C108.652 47.895 108.693 47.9079 108.699 47.9099C108.699 47.9099 108.673 47.8994 108.643 47.8687C108.615 47.8392 108.612 47.8198 108.618 47.8381C108.625 47.8607 108.639 47.9211 108.639 48.035H110.639ZM108.556 45.895H104.737V47.895H108.556V45.895ZM103.737 30.536V41.309H105.737V30.536H103.737ZM104.737 42.309H108.955V40.309H104.737V42.309ZM108.955 42.309C109.548 42.309 110.079 42.0695 110.464 41.6072L108.928 40.3268C108.923 40.3332 108.922 40.3329 108.927 40.3291C108.932 40.3252 108.94 40.3201 108.949 40.3155C108.959 40.311 108.967 40.309 108.97 40.3084C108.973 40.3078 108.969 40.309 108.955 40.309V42.309ZM110.403 41.6741C110.806 41.2712 111.038 40.7556 111.038 40.169H109.038C109.038 40.1925 109.035 40.2003 109.034 40.2026C109.032 40.206 109.023 40.2256 108.989 40.2599L110.403 41.6741ZM111.038 40.169V31.676H109.038V40.169H111.038ZM111.038 31.676C111.038 31.0894 110.806 30.5738 110.403 30.1709L108.989 31.5851C109.023 31.6194 109.032 31.639 109.034 31.6424C109.035 31.6447 109.038 31.6525 109.038 31.676H111.038ZM110.464 30.2378C110.079 29.7755 109.548 29.536 108.955 29.536V31.536C108.969 31.536 108.973 31.5372 108.97 31.5366C108.967 31.536 108.959 31.534 108.949 31.5295C108.94 31.5249 108.932 31.5198 108.927 31.5159C108.922 31.5121 108.923 31.5118 108.928 31.5182L110.464 30.2378ZM108.955 29.536H104.737V31.536H108.955V29.536ZM121.033 31.904H120.033V32.904H121.033V31.904ZM121.033 25.121V24.121H120.033V25.121H121.033ZM140.983 25.121H141.983V24.121H140.983V25.121ZM140.983 31.904V32.904H141.983V31.904H140.983ZM134.998 31.904V30.904H133.998V31.904H134.998ZM134.998 62V63H135.998V62H134.998ZM127.018 62H126.018V63H127.018V62ZM127.018 31.904H128.018V30.904H127.018V31.904ZM122.033 31.904V25.121H120.033V31.904H122.033ZM121.033 26.121H140.983V24.121H121.033V26.121ZM139.983 25.121V31.904H141.983V25.121H139.983ZM140.983 30.904H134.998V32.904H140.983V30.904ZM133.998 31.904V62H135.998V31.904H133.998ZM134.998 61H127.018V63H134.998V61ZM128.018 62V31.904H126.018V62H128.018ZM127.018 30.904H121.033V32.904H127.018V30.904ZM165.775 62V63H166.775V62H165.775ZM157.795 62H156.795V63H157.795V62ZM157.453 30.593L156.685 31.2332L156.714 31.268L156.746 31.3001L157.453 30.593ZM152.836 30.593L152.129 29.8859L152.097 29.918L152.068 29.9528L152.836 30.593ZM152.551 62V63H153.551V62H152.551ZM144.571 62H143.571V63H144.571V62ZM165.775 61H157.795V63H165.775V61ZM158.795 62V31.391H156.795V62H158.795ZM158.795 31.391C158.795 30.8044 158.563 30.2888 158.16 29.8859L156.746 31.3001C156.781 31.3344 156.789 31.354 156.791 31.3574C156.792 31.3597 156.795 31.3675 156.795 31.391H158.795ZM158.222 29.9528C157.836 29.4905 157.305 29.251 156.712 29.251V31.251C156.726 31.251 156.73 31.2522 156.727 31.2516C156.724 31.251 156.716 31.249 156.707 31.2445C156.697 31.2399 156.689 31.2348 156.684 31.2309C156.679 31.2271 156.68 31.2268 156.685 31.2332L158.222 29.9528ZM156.712 29.251H153.634V31.251H156.712V29.251ZM153.634 29.251C153.048 29.251 152.532 29.483 152.129 29.8859L153.543 31.3001C153.578 31.2658 153.597 31.2571 153.601 31.2556C153.603 31.2547 153.611 31.251 153.634 31.251V29.251ZM152.068 29.9528C151.724 30.3652 151.551 30.8593 151.551 31.391H153.551C153.551 31.3147 153.568 31.2768 153.605 31.2332L152.068 29.9528ZM151.551 31.391V62H153.551V31.391H151.551ZM152.551 61H144.571V63H152.551V61ZM145.571 62V32.075H143.571V62H145.571ZM145.571 32.075C145.571 29.7061 146.129 28.1155 147.067 27.1167C147.994 26.1296 149.454 25.551 151.639 25.551V23.551C149.113 23.551 147.038 24.2264 145.609 25.7473C144.192 27.2565 143.571 29.4279 143.571 32.075H145.571ZM151.639 25.551H158.707V23.551H151.639V25.551ZM158.707 25.551C160.893 25.551 162.352 26.1296 163.279 27.1167C164.218 28.1155 164.775 29.7061 164.775 32.075H166.775C166.775 29.4279 166.155 27.2565 164.737 25.7473C163.308 24.2264 161.234 23.551 158.707 23.551V25.551ZM164.775 32.075V62H166.775V32.075H164.775ZM179.104 55.388H178.104V56.388H179.104V55.388ZM187.939 55.388H188.939V54.388H187.939V55.388ZM187.939 62V63H188.939V62H187.939ZM171.124 62H170.124V63H171.124V62ZM171.124 25.121V24.121H170.124V25.121H171.124ZM187.939 25.121H188.939V24.121H187.939V25.121ZM187.939 31.619V32.619H188.939V31.619H187.939ZM179.104 31.619V30.619H178.104V31.619H179.104ZM179.104 40.283H178.104V41.283H179.104V40.283ZM187.369 40.283H188.369V39.283H187.369V40.283ZM187.369 46.553V47.553H188.369V46.553H187.369ZM179.104 46.553V45.553H178.104V46.553H179.104ZM179.104 56.388H187.939V54.388H179.104V56.388ZM186.939 55.388V62H188.939V55.388H186.939ZM187.939 61H171.124V63H187.939V61ZM172.124 62V25.121H170.124V62H172.124ZM171.124 26.121H187.939V24.121H171.124V26.121ZM186.939 25.121V31.619H188.939V25.121H186.939ZM187.939 30.619H179.104V32.619H187.939V30.619ZM178.104 31.619V40.283H180.104V31.619H178.104ZM179.104 41.283H187.369V39.283H179.104V41.283ZM186.369 40.283V46.553H188.369V40.283H186.369ZM187.369 45.553H179.104V47.553H187.369V45.553ZM178.104 46.553V55.388H180.104V46.553H178.104ZM200.535 46.895V45.895H199.535V46.895H200.535ZM200.535 62V63H201.535V62H200.535ZM192.555 62H191.555V63H192.555V62ZM192.555 25.121V24.121H191.555V25.121H192.555ZM210.567 42.734L210.207 41.8011L207.705 42.7666L210.228 43.6749L210.567 42.734ZM213.417 62V63H214.417V62H213.417ZM205.437 62H204.437V63H205.437V62ZM200.535 30.536V29.536H199.535V30.536H200.535ZM200.535 41.309H199.535V42.309H200.535V41.309ZM205.494 40.967L204.787 40.2599L204.755 40.292L204.726 40.3268L205.494 40.967ZM205.494 30.878L204.726 31.5182L204.755 31.553L204.787 31.5851L205.494 30.878ZM199.535 46.895V62H201.535V46.895H199.535ZM200.535 61H192.555V63H200.535V61ZM193.555 62V25.121H191.555V62H193.555ZM192.555 26.121H206.748V24.121H192.555V26.121ZM206.748 26.121C208.933 26.121 210.393 26.6996 211.32 27.6867C212.259 28.6855 212.816 30.2761 212.816 32.645H214.816C214.816 29.9979 214.196 27.8265 212.778 26.3173C211.349 24.7964 209.275 24.121 206.748 24.121V26.121ZM212.816 32.645V36.92H214.816V32.645H212.816ZM212.816 36.92C212.816 38.3295 212.564 39.3908 212.131 40.1657C211.709 40.9211 211.083 41.4629 210.207 41.8011L210.927 43.6669C212.217 43.1691 213.216 42.3239 213.877 41.1413C214.527 39.9782 214.816 38.5505 214.816 36.92H212.816ZM210.228 43.6749C210.988 43.9484 211.507 44.3728 211.851 44.9361C212.203 45.5143 212.417 46.3163 212.417 47.408H214.417C214.417 46.0677 214.156 44.8747 213.558 43.8949C212.952 42.9002 212.046 42.2036 210.906 41.7931L210.228 43.6749ZM212.417 47.408V62H214.417V47.408H212.417ZM213.417 61H205.437V63H213.417V61ZM206.437 62V48.035H204.437V62H206.437ZM206.437 48.035C206.437 47.5133 206.314 46.9362 205.891 46.4912C205.459 46.0366 204.883 45.895 204.354 45.895V47.895C204.45 47.895 204.491 47.9079 204.497 47.9099C204.497 47.9099 204.47 47.8994 204.441 47.8687C204.413 47.8392 204.41 47.8198 204.416 47.8381C204.423 47.8607 204.437 47.9211 204.437 48.035H206.437ZM204.354 45.895H200.535V47.895H204.354V45.895ZM199.535 30.536V41.309H201.535V30.536H199.535ZM200.535 42.309H204.753V40.309H200.535V42.309ZM204.753 42.309C205.346 42.309 205.877 42.0695 206.262 41.6072L204.726 40.3268C204.721 40.3332 204.72 40.3329 204.725 40.3291C204.73 40.3252 204.737 40.3201 204.747 40.3155C204.757 40.311 204.765 40.309 204.768 40.3084C204.771 40.3078 204.766 40.309 204.753 40.309V42.309ZM206.201 41.6741C206.604 41.2712 206.836 40.7556 206.836 40.169H204.836C204.836 40.1925 204.832 40.2003 204.831 40.2026C204.83 40.206 204.821 40.2256 204.787 40.2599L206.201 41.6741ZM206.836 40.169V31.676H204.836V40.169H206.836ZM206.836 31.676C206.836 31.0894 206.604 30.5738 206.201 30.1709L204.787 31.5851C204.821 31.6194 204.83 31.639 204.831 31.6424C204.832 31.6447 204.836 31.6525 204.836 31.676H206.836ZM206.262 30.2378C205.877 29.7755 205.346 29.536 204.753 29.536V31.536C204.766 31.536 204.771 31.5372 204.768 31.5366C204.765 31.536 204.757 31.534 204.747 31.5295C204.737 31.5249 204.73 31.5198 204.725 31.5159C204.72 31.5121 204.721 31.5118 204.726 31.5182L206.262 30.2378ZM204.753 29.536H200.535V31.536H204.753V29.536ZM239.403 34.811V35.811H240.403V34.811H239.403ZM231.822 34.811H230.822V35.811H231.822V34.811ZM231.48 31.106L230.712 31.7462L230.741 31.781L230.773 31.8131L231.48 31.106ZM226.806 31.106L226.099 30.3989L226.067 30.431L226.038 30.4658L226.806 31.106ZM226.806 39.257L226.038 39.8972L226.067 39.932L226.099 39.9641L226.806 39.257ZM232.734 39.599L232.75 38.5991L232.742 38.599H232.734V39.599ZM218.94 51.227V50.227H217.94V51.227H218.94ZM226.521 51.227H227.521V50.227H226.521V51.227ZM226.806 56.129L226.038 56.7692L226.067 56.804L226.099 56.8361L226.806 56.129ZM231.879 56.129L231.172 55.4219L231.14 55.454L231.111 55.4888L231.879 56.129ZM231.879 47.294L231.111 47.9342L231.14 47.969L231.172 48.0011L231.879 47.294ZM239.403 33.811H231.822V35.811H239.403V33.811ZM232.822 34.811V31.904H230.822V34.811H232.822ZM232.822 31.904C232.822 31.3174 232.59 30.8018 232.187 30.3989L230.773 31.8131C230.807 31.8474 230.816 31.867 230.817 31.8704C230.818 31.8727 230.822 31.8805 230.822 31.904H232.822ZM232.248 30.4658C231.863 30.0035 231.331 29.764 230.739 29.764V31.764C230.752 31.764 230.756 31.7652 230.754 31.7646C230.75 31.764 230.743 31.762 230.733 31.7575C230.723 31.7529 230.715 31.7478 230.71 31.7439C230.706 31.7401 230.706 31.7398 230.712 31.7462L232.248 30.4658ZM230.739 29.764H227.604V31.764H230.739V29.764ZM227.604 29.764C227.017 29.764 226.502 29.996 226.099 30.3989L227.513 31.8131C227.547 31.7788 227.567 31.7701 227.57 31.7686C227.573 31.7677 227.58 31.764 227.604 31.764V29.764ZM226.038 30.4658C225.694 30.8782 225.521 31.3723 225.521 31.904H227.521C227.521 31.8277 227.538 31.7898 227.574 31.7462L226.038 30.4658ZM225.521 31.904V38.459H227.521V31.904H225.521ZM225.521 38.459C225.521 38.9907 225.694 39.4848 226.038 39.8972L227.574 38.6168C227.538 38.5732 227.521 38.5353 227.521 38.459H225.521ZM226.099 39.9641C226.502 40.367 227.017 40.599 227.604 40.599V38.599C227.58 38.599 227.573 38.5953 227.57 38.5944C227.567 38.5929 227.547 38.5842 227.513 38.5499L226.099 39.9641ZM227.604 40.599H232.734V38.599H227.604V40.599ZM232.718 40.5989C234.906 40.6342 236.373 41.2289 237.306 42.2217C238.247 43.223 238.802 44.797 238.802 47.123H240.802C240.802 44.509 240.179 42.359 238.764 40.8523C237.34 39.3371 235.274 38.6398 232.75 38.5991L232.718 40.5989ZM238.802 47.123V55.046H240.802V47.123H238.802ZM238.802 55.046C238.802 57.4149 238.244 59.0055 237.306 60.0043C236.379 60.9914 234.919 61.57 232.734 61.57V63.57C235.261 63.57 237.335 62.8946 238.764 61.3737C240.181 59.8645 240.802 57.6931 240.802 55.046H238.802ZM232.734 61.57H226.008V63.57H232.734V61.57ZM226.008 61.57C223.823 61.57 222.363 60.9914 221.436 60.0043C220.497 59.0055 219.94 57.4149 219.94 55.046H217.94C217.94 57.6931 218.56 59.8645 219.978 61.3737C221.407 62.8946 223.481 63.57 226.008 63.57V61.57ZM219.94 55.046V51.227H217.94V55.046H219.94ZM218.94 52.227H226.521V50.227H218.94V52.227ZM225.521 51.227V55.331H227.521V51.227H225.521ZM225.521 55.331C225.521 55.8627 225.694 56.3568 226.038 56.7692L227.574 55.4888C227.538 55.4452 227.521 55.4073 227.521 55.331H225.521ZM226.099 56.8361C226.502 57.239 227.017 57.471 227.604 57.471V55.471C227.58 55.471 227.573 55.4673 227.57 55.4664C227.567 55.4649 227.547 55.4562 227.513 55.4219L226.099 56.8361ZM227.604 57.471H231.138V55.471H227.604V57.471ZM231.138 57.471C231.73 57.471 232.262 57.2315 232.647 56.7692L231.111 55.4888C231.105 55.4952 231.105 55.4949 231.109 55.4911C231.114 55.4872 231.122 55.4821 231.132 55.4775C231.142 55.473 231.149 55.471 231.153 55.4704C231.155 55.4698 231.151 55.471 231.138 55.471V57.471ZM232.586 56.8361C232.989 56.4332 233.221 55.9176 233.221 55.331H231.221C231.221 55.3545 231.217 55.3623 231.216 55.3646C231.215 55.368 231.206 55.3876 231.172 55.4219L232.586 56.8361ZM233.221 55.331V48.092H231.221V55.331H233.221ZM233.221 48.092C233.221 47.5054 232.989 46.9898 232.586 46.5869L231.172 48.0011C231.206 48.0354 231.215 48.055 231.216 48.0584C231.217 48.0607 231.221 48.0685 231.221 48.092H233.221ZM232.647 46.6538C232.262 46.1915 231.73 45.952 231.138 45.952V47.952C231.151 47.952 231.155 47.9532 231.153 47.9526C231.149 47.952 231.142 47.95 231.132 47.9455C231.122 47.9409 231.114 47.9358 231.109 47.9319C231.105 47.9281 231.105 47.9278 231.111 47.9342L232.647 46.6538ZM231.138 45.952H226.008V47.952H231.138V45.952ZM226.008 45.952C223.823 45.952 222.363 45.3734 221.436 44.3863C220.497 43.3875 219.94 41.7969 219.94 39.428H217.94C217.94 42.0751 218.56 44.2465 219.978 45.7557C221.407 47.2766 223.481 47.952 226.008 47.952V45.952ZM219.94 39.428V32.075H217.94V39.428H219.94ZM219.94 32.075C219.94 29.7061 220.497 28.1155 221.436 27.1167C222.363 26.1296 223.823 25.551 226.008 25.551V23.551C223.481 23.551 221.407 24.2264 219.978 25.7473C218.56 27.2565 217.94 29.4279 217.94 32.075H219.94ZM226.008 25.551H232.335V23.551H226.008V25.551ZM232.335 25.551C234.52 25.551 235.98 26.1296 236.907 27.1167C237.845 28.1155 238.403 29.7061 238.403 32.075H240.403C240.403 29.4279 239.782 27.2565 238.365 25.7473C236.936 24.2264 234.862 23.551 232.335 23.551V25.551ZM238.403 32.075V34.811H240.403V32.075H238.403Z" fill="url(#paint1_linear_4249_8)"/>
<defs>
<filter id="filter0_b_4249_8" x="-4" y="-4" width="332" height="95" filterUnits="userSpaceOnUse" color-interpolation-filters="sRGB">
<feFlood flood-opacity="0" result="BackgroundImageFix"/>
<feGaussianBlur in="BackgroundImageFix" stdDeviation="2"/>
<feComposite in2="SourceAlpha" operator="in" result="effect1_backgroundBlur_4249_8"/>
<feBlend mode="normal" in="SourceGraphic" in2="effect1_backgroundBlur_4249_8" result="shape"/>
</filter>
<linearGradient id="paint0_linear_4249_8" x1="-10.5" y1="75.7649" x2="32.6057" y2="-17.7546" gradientUnits="userSpaceOnUse">
<stop stop-color="white"/>
<stop offset="1" stop-color="white" stop-opacity="0"/>
</linearGradient>
<linearGradient id="paint1_linear_4249_8" x1="23" y1="31.2278" x2="277.495" y2="111.719" gradientUnits="userSpaceOnUse">
<stop stop-color="white"/>
<stop offset="1" stop-color="white" stop-opacity="0"/>
</linearGradient>
</defs>
</svg>
