<svg xmlns="http://www.w3.org/2000/svg" fill="none" viewBox="24 25 48 48">
<g filter="url(#filter0_bd_3388_19)">
<path d="M29 72.998C26.2386 72.998 24 70.7595 24 67.998L24 29.9981C24 27.2366 26.2386 24.9981 29 24.9981L54.605 24.9981C55.7166 24.9981 56.7964 25.3684 57.6739 26.0507L70.0689 35.6872C71.2873 36.6345 72 38.0913 72 39.6346L72 67.9981C72 70.7595 69.7614 72.998 67 72.998L29 72.998Z" fill="#22F5C3"/>
</g>
<path d="M58.6618 53.7665L57.2291 51.4359C56.6857 50.5517 56.4011 49.5444 56.4011 48.5149V45.1959C56.4043 40.6738 52.6331 36.998 47.9984 36.998C43.3636 36.998 39.5957 40.6738 39.5957 45.1959V48.5149C39.5957 49.5444 39.3111 50.5517 38.7677 51.4359L37.3349 53.7665C36.8983 54.477 36.8886 55.3328 37.3058 56.0559C37.723 56.7791 38.4831 57.2086 39.3337 57.2086H44.8514C44.8094 57.417 44.7673 57.6254 44.7673 57.8402C44.7673 59.5802 46.2195 60.998 48.0016 60.998C49.7837 60.998 51.2359 59.5802 51.2359 57.8402C51.2359 57.6254 51.1939 57.417 51.1518 57.2086H56.6663C57.5169 57.2086 58.2737 56.7759 58.6942 56.0559C59.1114 55.3328 59.1017 54.4802 58.6651 53.7696L58.6618 53.7665ZM49.939 57.8402C49.939 58.8854 49.0689 59.7349 47.9984 59.7349C46.9278 59.7349 46.0578 58.8854 46.0578 57.8402C46.0578 57.6223 46.1096 57.4107 46.1839 57.2086H49.8128C49.8872 57.4107 49.939 57.6223 49.939 57.8402ZM57.5654 55.4338C57.3778 55.7559 57.0415 55.9454 56.6631 55.9454H39.3369C38.9585 55.9454 38.6222 55.7528 38.4346 55.4338C38.2502 55.1117 38.2535 54.7328 38.4475 54.417L39.8803 52.0865C40.5433 51.0065 40.8926 49.7749 40.8926 48.518V45.1991C40.8926 41.3749 44.0817 38.2644 48.0016 38.2644C51.9216 38.2644 55.1106 41.3749 55.1106 45.1991V48.518C55.1106 49.7749 55.4599 51.0096 56.1229 52.0865L57.5557 54.417C57.7498 54.7328 57.7562 55.1117 57.5687 55.4338H57.5654Z" fill="black"/>
<defs>
<filter id="filter0_bd_3388_19" x="0" y="0.998047" width="96" height="96" filterUnits="userSpaceOnUse" color-interpolation-filters="sRGB">
<feFlood flood-opacity="0" result="BackgroundImageFix"/>
<feGaussianBlur in="BackgroundImageFix" stdDeviation="2"/>
<feComposite in2="SourceAlpha" operator="in" result="effect1_backgroundBlur_3388_19"/>
<feColorMatrix in="SourceAlpha" type="matrix" values="0 0 0 0 0 0 0 0 0 0 0 0 0 0 0 0 0 0 127 0" result="hardAlpha"/>
<feOffset/>
<feGaussianBlur stdDeviation="12"/>
<feComposite in2="hardAlpha" operator="out"/>
<feColorMatrix type="matrix" values="0 0 0 0 0.133333 0 0 0 0 0.960784 0 0 0 0 0.764706 0 0 0 0.35 0"/>
<feBlend mode="normal" in2="effect1_backgroundBlur_3388_19" result="effect2_dropShadow_3388_19"/>
<feBlend mode="normal" in="SourceGraphic" in2="effect2_dropShadow_3388_19" result="shape"/>
</filter>
</defs>
</svg>