<svg width="15" height="15" viewBox="0 0 15 15" fill="none" xmlns="http://www.w3.org/2000/svg">
<path d="M9.59778 2.87642C10.0884 3.77474 11.2253 4.91161 12.1236 5.40222L14.3263 6.60675C15.2246 7.09736 15.2246 7.90095 14.3263 8.39325L12.1236 9.59778C11.2253 10.0884 10.0884 11.2253 9.59778 12.1236L8.39325 14.3263C7.90264 15.2246 7.09905 15.2246 6.60675 14.3263L5.40222 12.1236C4.91161 11.2253 3.77474 10.0884 2.87642 9.59778L0.673744 8.39325C-0.224581 7.90264 -0.224581 7.09905 0.673744 6.60675L2.87642 5.40222C3.77474 4.91161 4.91161 3.77474 5.40222 2.87642L6.60675 0.673744C7.09736 -0.224581 7.90095 -0.224581 8.39325 0.673744L9.59778 2.87642Z" fill="#22F5C3"/>
</svg>
