<svg width="9" height="9" viewBox="0 0 9 9" fill="none" xmlns="http://www.w3.org/2000/svg">
<path d="M5.75867 1.72585C6.05304 2.26485 6.73516 2.94696 7.27415 3.24133L8.59575 3.96405C9.13475 4.25842 9.13475 4.74057 8.59575 5.03595L7.27415 5.75867C6.73516 6.05304 6.05304 6.73516 5.75867 7.27415L5.03595 8.59575C4.74158 9.13475 4.25943 9.13475 3.96405 8.59575L3.24133 7.27415C2.94696 6.73516 2.26485 6.05304 1.72585 5.75867L0.404246 5.03595C-0.134749 4.74158 -0.134749 4.25943 0.404246 3.96405L1.72585 3.24133C2.26485 2.94696 2.94696 2.26485 3.24133 1.72585L3.96405 0.404246C4.25842 -0.134749 4.74057 -0.134749 5.03595 0.404246L5.75867 1.72585Z" fill="#22F5C3"/>
</svg>
