<svg width="34" height="33" viewBox="0 0 34 33" fill="none" xmlns="http://www.w3.org/2000/svg">
<rect x="0.5" width="33" height="33" rx="4" fill="#4A99E9"/>
<path d="M26.0124 10.8445L23.3235 11.6286C22.8847 11.0591 21.7924 9.92018 20.1166 10.1956C19.5958 10.2591 19.0943 10.4316 18.6447 10.7018C18.1951 10.9721 17.8075 11.334 17.5071 11.764C16.9762 12.6223 16.7754 13.6443 16.9422 14.6396C15.8592 14.4062 12.9697 12.1749 11.1725 10.1537C11.1725 10.1537 10.5703 12.2029 11.6393 13.5287C11.3101 13.3501 10.9976 13.1423 10.7057 12.9078C10.708 12.9311 10.708 12.9545 10.7057 12.9778C10.7057 13.3979 10.7057 15.8534 11.9521 16.8524C11.6827 16.7901 11.4176 16.7105 11.1585 16.6142C11.6542 17.9596 12.5299 19.132 13.6793 19.9892C12.825 20.5541 12.4422 20.7361 10.1128 21.1749C10.4092 21.3336 10.7224 21.4588 11.0465 21.5483C10.513 21.7456 9.95268 21.8605 9.38464 21.8891L9.8841 22.0947C11.7986 22.8305 13.8272 23.2255 15.878 23.2617C19.4817 23.2617 23.8977 21.7632 24.5279 14.6164L26.3298 12.343L23.949 12.9497L26.0124 10.8445Z" fill="white"/>
</svg>
