<svg width="355" height="597" viewBox="0 0 355 597" fill="none" xmlns="http://www.w3.org/2000/svg">
<path d="M354.5 20C354.5 9.23049 345.77 0.500016 335 0.500015L20 0.500001C9.23044 0.5 0.5 9.23045 0.5 20L0.5 559.347V576.5C0.5 587.27 9.20416 596 19.9728 596H20.12H20.2676H20.4156H20.564H20.7127H20.8619H21.0115H21.1615H21.3119H21.4627H21.6139H21.7655H21.9174H22.0698H22.2226H22.3757H22.5292H22.6831H22.8374H22.9921H23.1472H23.3026H23.4584H23.6146H23.7711H23.928H24.0854H24.243H24.401H24.5594H24.7182H24.8773H25.0368H25.1967H25.3569H25.5175H25.6784H25.8397H26.0013H26.1633H26.3256H26.4883H26.6513H26.8147H26.9784H27.1424H27.3068H27.4716H27.6366H27.802H27.9677H28.1338H28.3002H28.4669H28.634H28.8014H28.9691H29.1371H29.3055H29.4742H29.6432H29.8125H29.9821H30.1521H30.3224H30.4929H30.6638H30.835H31.0065H31.1783H31.3504H31.5228H31.6955H31.8685H32.0418H32.2154H32.3893H32.5635H32.738H32.9128H33.0878H33.2632H33.4388H33.6147H33.7909H33.9674H34.1441H34.3212H34.4985H34.6761H34.8539H35.0321H35.2105H35.3892H35.5681H35.7473H35.9268H36.1065H36.2865H36.4668H36.6473H36.828H37.0091H37.1903H37.3719H37.5536H37.7357H37.918H38.1005H38.2833H38.4663H38.6495H38.833H39.0168H39.2007H39.3849H39.5694H39.754H39.9389H40.1241H40.3094H40.495H40.6808H40.8669H41.0531H41.2396H41.4263H41.6132H41.8003H41.9877H42.1752H42.363H42.551H42.7392H42.9276H43.1161H43.3049H43.494H43.6831H43.8726H44.0621H44.252H44.4419H44.6321H44.8225H45.0131H45.2038H45.3947H45.5859H45.7772H45.9687H46.1603H46.3522H46.5442H46.7364H46.9288H47.1213H47.3141H47.507H47.7H47.8932H48.0866H48.2802H48.4739H48.6678H48.8618H49.0561H49.2504H49.4449H49.6396H49.8344H50.0294H50.2245H50.4198H50.6152H50.8107H51.0064H51.2023H51.3983H51.5944H51.7906H51.987H52.1835H52.3802H52.577H52.7739H52.9709H53.1681H53.3654H53.5628H53.7603H53.958H54.1558H54.3537H54.5517H54.7498H54.948H55.1464H55.3448H55.5434H55.7421H55.9408H56.1397H56.3387H56.5378L56.7369 596H56.9362H57.1356H57.3351H57.5346H57.7343H57.934H58.1339H58.3337H58.5338H58.7338H58.934H59.1342H59.3346H59.535H59.7354H59.936H60.1366H60.3373H60.5381H60.7389H60.9398H61.1408H61.3418H61.5429H61.7441H61.9453H62.1465H62.3479H62.5493H62.7507H62.9522H63.1537H63.3553H63.5569H63.7586H63.9604H64.1621H64.3639H64.5658H64.7676H64.9696H65.1715H65.3735H65.5755H65.7776H65.9797H66.1818H66.3839H66.5861H66.7882H66.9904H67.1927H67.3949H67.5972H67.7994H68.0017H68.204H68.4063H68.6086H68.811H69.0133H69.2156H69.418H69.6203H69.8227H70.025H70.2274H70.4297H70.632H70.8343H71.0366H71.2389H71.4412H71.6435H71.8457H72.048H72.2502H72.4524H72.6546H72.8568H73.0589H73.261H73.4631H73.6651H73.8672H74.0692H74.2711H74.473H74.6749H74.8768H75.0786H75.2803H75.4821H75.6837H75.8854H76.087H76.2885H76.49H76.6914H76.8928H77.0941H77.2954H77.4966H77.6978H77.8989H78.0999H78.3009H78.5018H78.7026H78.9034H79.1041H79.3047H79.5053H79.7058H79.9062H80.1065H80.3068H80.5069H80.707H80.907H81.1069H81.3068H81.5065H81.7062H81.9057H82.1052H82.3046H82.5039H82.7031H82.9021H83.1011H83.3H83.4988H83.6974H83.896H84.0945H84.2928H84.4911H84.6892H84.8872H85.0851H85.2829H85.4806H85.6781H85.8755H86.0728H86.27H86.4671H86.664H86.8608H87.0574H87.254H87.4503H87.6466H87.8427H88.0387H88.2346H88.4303H88.6259H88.8213H89.0165H89.2117H89.4066H89.6015H89.7961H89.9907H90.185H90.3792H90.5733H90.7672H90.9609H91.1545H91.3479H91.5411H91.7342H91.9271H92.1198H92.3124H92.5048H92.697H92.889H93.0809H93.2726H93.4641H93.6554H93.8465H94.0375H94.2282H94.4188H94.6092H94.7994H94.9894H95.1792H95.3688H95.5582H95.7474H95.9364H96.1252H96.3138H96.5022H96.6904H96.8784H97.0662H97.2538H97.4411H97.6283H97.8152H98.0019H98.1884H98.3746H98.5607H98.7465H98.9321H99.1175H99.3026H99.4875H99.6722H99.8567H100.041H100.225H100.409H100.592H100.775H100.958H101.141H101.324H101.506H101.688H101.87H102.051H102.233H102.414H102.595H102.775H102.955H103.135H103.315H103.495H103.674H103.853H104.031H104.21H104.388H104.566H104.743H104.921H105.098H105.275H105.451H105.627H105.803H105.979H106.154H106.329H106.504H106.679H106.853H107.027H107.2H107.374H107.547H107.719H107.892H108.064H108.236H108.407H108.579H108.749H108.92H109.09H109.26H109.43H109.599H109.768H109.937H110.105H110.273H110.441H110.608H110.776H110.942H111.109H111.275H111.441H111.606H111.771H111.936H112.1H112.264H112.428H112.591H112.754H112.917H113.08H113.242H113.403H113.564H113.725H113.886H114.046H114.206H114.366H114.525H114.684H114.842H115H115.173H115.347H115.522H115.698H115.874H116.052H116.231H116.41H116.591H116.772H116.955H117.138H117.322H117.508H117.694H117.881H118.069H118.257H118.447H118.638H118.829H119.022H119.215H119.409H119.604H119.8H119.997H120.194H120.393H120.592H120.792H120.993H121.195H121.398H121.601H121.805H122.011H122.217H122.423H122.631H122.839L123.049 596H123.259H123.47H123.681H123.894H124.107H124.321H124.536H124.751H124.967H125.184H125.402H125.621H125.84H126.06H126.281H126.503H126.725H126.948H127.172H127.396H127.622H127.848H128.074H128.302H128.53H128.758H128.988H129.218H129.449H129.681H129.913H130.146H130.379H130.614H130.848H131.084H131.32H131.557H131.795H132.033H132.272H132.511H132.751H132.992H133.233H133.475H133.718H133.961H134.205H134.45H134.695H134.94H135.186H135.433H135.681H135.929H136.177H136.426H136.676H136.926H137.177H137.429H137.681H137.933H138.186H138.44H138.694H138.949H139.204H139.46H139.716H139.973H140.23H140.488H140.746H141.005H141.264H141.524H141.785H142.045H142.307H142.568H142.831H143.093H143.357H143.62H143.884H144.149H144.414H144.679H144.945H145.212H145.478H145.746H146.013H146.281H146.55H146.819H147.088H147.358H147.628H147.898H148.169H148.441H148.712H148.984H149.257H149.53H149.803H150.076H150.35H150.625H150.899H151.174H151.45H151.725H152.002H152.278H152.555H152.832H153.109H153.387H153.665H153.943H154.222H154.501H154.78H155.059H155.339H155.619H155.9H156.181H156.462H156.743H157.024H157.306H157.588H157.87H158.153H158.436H158.719H159.002H159.286H159.569H159.853H160.137H160.422H160.707H160.991H161.276H161.562H161.847H162.133H162.419H162.705H162.991H163.277H163.564H163.851H164.138H164.425H164.712H165H165.287H165.575H165.863H166.151H166.439H166.727H167.016H167.304H167.593H167.882H168.171H168.46H168.749H169.038H169.327H169.617H169.906H170.196H170.486H170.775H171.065H171.355H171.645H171.935H172.225H172.515H172.806H173.096H173.386H173.676H173.967H174.257H174.548H174.838H175.128H175.419H175.709H176H176.29H176.581H176.871H177.162H177.452H177.743H178.033H178.324H178.614H178.904H179.195H179.485H179.775H180.065H180.355H180.646H180.936H181.225H181.515H181.805H182.095H182.385H182.674H182.964H183.253H183.542H183.831H184.12H184.409H184.698H184.987H185.276H185.564H185.853H186.141H186.429H186.717H187.005H187.292H187.58H187.867H188.154H188.441H188.728H189.015L189.301 596H189.588H189.874H190.16H190.446H190.731H191.017H191.302H191.587H191.872H192.156H192.441H192.725H193.008H193.292H193.576H193.859H194.142H194.424H194.707H194.989H195.271H195.552H195.834H196.115H196.396H196.676H196.957H197.237H197.516H197.796H198.075H198.354H198.632H198.91H199.188H199.466H199.743H200.02H200.296H200.573H200.849H201.124H201.399H201.674H201.949H202.223H202.497H202.77H203.043H203.316H203.588H203.86H204.132H204.403H204.673H204.944H205.214H205.483H205.752H206.021H206.289H206.557H206.825H207.092H207.358H207.624H207.89H208.155H208.42H208.685H208.948H209.212H209.475H209.737H209.999H210.261H210.522H210.783H211.043H211.302H211.561H211.82H212.078H212.336H212.593H212.849H213.105H213.361H213.616H213.87H214.124H214.377H214.63H214.883H215.134H215.385H215.636H215.886H216.135H216.384H216.633H216.88H217.128H217.374H217.62H217.865H218.11H218.354H218.598H218.841H219.083H219.325H219.566H219.806H220.046H220.286H220.524H220.762H220.999H221.236H221.472H221.707H221.942H222.176H222.409H222.641H222.873H223.105H223.335H223.565H223.794H224.023H224.25H224.477H224.704H224.929H225.154H225.378H225.602H225.825H226.047H226.268H226.488H226.708H226.927H227.145H227.363H227.58H227.796H228.011H228.225H228.439H228.652H228.864H229.075H229.285H229.495H229.704H229.912H230.119H230.326H230.531H230.736H230.94H231.143H231.345H231.547H231.747H231.947H232.146H232.344H232.541H232.738H232.933H233.128H233.322H233.514H233.706H233.897H234.088H234.277H234.465H234.653H234.839H235.025H235.21H235.394H235.577H235.759H235.94H236.12H236.299H236.477H236.654H236.831H237.006H237.181H237.354H237.527H237.698H237.869H238.038H238.207H238.375H238.541H238.707H238.871H239.035H239.198H239.359H239.52H239.679H239.838H239.996H240.152H240.308H240.462H240.615H240.768H240.919H241.069H241.218H241.367C246.918 596 252.178 593.634 255.878 589.494L277.153 565.687C281.042 561.335 286.602 558.847 292.439 558.847L335 558.847C345.77 558.847 354.5 550.116 354.5 539.347L354.5 20Z" stroke="white"/>
<path d="M354 576C354 572.41 351.09 569.5 347.5 569.5L294.676 569.5C292.802 569.5 291.019 570.309 289.785 571.72L277.535 585.72C273.857 589.923 276.842 596.5 282.426 596.5L347.5 596.5C351.09 596.5 354 593.59 354 590L354 576Z" stroke="#22F5C3"/>
</svg>
