<svg width="372" height="518" viewBox="0 0 372 518" fill="none" xmlns="http://www.w3.org/2000/svg">
<path d="M0.5 20C0.5 9.23047 9.23045 0.5 20 0.5H352C362.77 0.5 371.5 9.23045 371.5 20V479.873V497C371.5 507.77 362.77 516.5 352 516.5H272H109.553C103.662 516.5 98.0873 513.837 94.3852 509.256L76.3926 486.988C72.5007 482.172 66.64 479.373 60.4474 479.373H20C9.23045 479.373 0.5 470.642 0.5 459.873V20Z" stroke="white"/>
<path d="M0.5 497C0.5 493.41 3.41015 490.5 7 490.5H59.8236C61.698 490.5 63.4811 491.309 64.7154 492.72L76.9654 506.72C80.6428 510.923 77.6581 517.5 72.0736 517.5H7C3.41015 517.5 0.5 514.59 0.5 511V497Z" stroke="#22F5C3"/>
</svg>
